<svg width="73" height="71" viewBox="0 0 73 71" fill="none" xmlns="http://www.w3.org/2000/svg">
<path d="M29.2945 62.265C29.2945 66.8129 27.666 70.5003 23.118 70.5003H8.70626C0.470962 70.5003 0.470962 41.6768 8.70626 41.6768H23.118C27.666 41.6768 29.2945 45.3641 29.2945 49.9121V62.265Z" fill="#553788"/>
<path d="M68.412 66.3826H66.3531V45.7944H68.412C69.5505 45.7944 70.4708 44.8741 70.4708 43.7356C70.4708 42.5971 69.5505 41.6768 68.412 41.6768H19.0002C10.7649 41.6768 10.7649 70.5003 19.0002 70.5003H68.412C69.5505 70.5003 70.4708 69.58 70.4708 68.4415C70.4708 67.3029 69.5505 66.3826 68.412 66.3826Z" fill="#9266CC"/>
<path d="M68.766 66.3827H21.0589C16.9413 66.3827 16.9413 45.7944 21.0589 45.7944H68.766C71.0389 45.7944 71.0389 66.3827 68.766 66.3827Z" fill="#CCD6DD"/>
<path d="M22.0887 49.9121H70.1623C69.8843 47.493 69.4211 45.7944 68.7664 45.7944H21.0593C17.6602 45.7944 17.0693 59.8109 19.2826 64.7109C18.4755 58.6188 19.4102 49.9121 22.0887 49.9121Z" fill="#99AAB5"/>
<path d="M23.1178 14.9118C23.1178 19.4597 19.4304 23.1471 14.8825 23.1471H6.64717C-1.58812 23.1471 -1.58812 0.5 6.64717 0.5H14.8825C19.4304 0.5 23.1178 4.18735 23.1178 8.73529V14.9118Z" fill="#226699"/>
<path d="M62.2357 19.0294H60.1769V4.61765H62.2357C63.3742 4.61765 64.2945 3.69735 64.2945 2.55882C64.2945 1.42029 63.3742 0.5 62.2357 0.5H12.8239C4.58864 0.5 4.58864 23.1471 12.8239 23.1471H62.2357C63.3742 23.1471 64.2945 22.2268 64.2945 21.0882C64.2945 19.9497 63.3742 19.0294 62.2357 19.0294Z" fill="#55ACEE"/>
<path d="M62.5892 19.0294H14.8822C10.7645 19.0294 10.7645 4.61768 14.8822 4.61768H62.5892C64.8622 4.61768 64.8622 19.0294 62.5892 19.0294Z" fill="#CCD6DD"/>
<path d="M14.8837 8.73532H64.141C63.9063 6.41915 63.3916 4.61768 62.5907 4.61768H14.8837C12.4275 4.61768 11.4475 9.74209 11.9231 13.8824C12.2443 11.0865 13.2222 8.73532 14.8837 8.73532Z" fill="#99AAB5"/>
<path d="M39.5884 33.4411C39.5884 37.989 35.901 41.6764 31.3531 41.6764H10.7648C2.52956 41.6764 2.52956 23.147 10.7648 23.147H31.3531C35.901 23.147 39.5884 26.8343 39.5884 31.3823V33.4411Z" fill="#F4900C"/>
<path d="M70.4706 37.5587H68.4118V27.2646H70.4706C71.6091 27.2646 72.5294 26.3443 72.5294 25.2058C72.5294 24.0673 71.6091 23.147 70.4706 23.147H29.2941C21.0589 23.147 21.0589 41.6764 29.2941 41.6764H70.4706C71.6091 41.6764 72.5294 40.7561 72.5294 39.6176C72.5294 38.479 71.6091 37.5587 70.4706 37.5587Z" fill="#FFAC33"/>
<path d="M70.8251 37.5588H31.3534C27.2357 37.5588 27.2357 27.2646 31.3534 27.2646H70.8251C73.0981 27.2646 73.0981 37.5588 70.8251 37.5588Z" fill="#CCD6DD"/>
<path d="M31.354 31.3823H72.4975C72.3637 29.1958 71.8099 27.2646 70.8258 27.2646H31.354C28.731 27.2646 27.786 31.4379 28.5066 34.4705C28.9143 32.7432 29.8593 31.3823 31.354 31.3823Z" fill="#99AAB5"/>
</svg>
