<svg width="59" height="71" viewBox="0 0 59 71" fill="none" xmlns="http://www.w3.org/2000/svg">
<path d="M58.5455 30.9325C58.2616 30.1722 57.5344 29.6667 56.7216 29.6667H33.2424L46.7855 3.335C47.2113 2.50667 46.9916 1.49361 46.2585 0.918056C45.9046 0.638056 45.4788 0.5 45.0549 0.5C44.6019 0.5 44.1488 0.659444 43.7852 0.9725L29.4994 13.31L1.00741 37.9169C0.392968 38.4478 0.171301 39.3053 0.45519 40.0656C0.739079 40.8258 1.46436 41.3333 2.27713 41.3333H25.7563L12.2132 67.665C11.7874 68.4933 12.0071 69.5064 12.7402 70.0819C13.0941 70.3619 13.5199 70.5 13.9438 70.5C14.3969 70.5 14.8499 70.3406 15.2135 70.0275L29.4994 57.69L57.9913 33.0831C58.6077 32.5522 58.8274 31.6947 58.5455 30.9325Z" fill="#FFAC33"/>
</svg>
