<svg width="55" height="71" viewBox="0 0 55 71" fill="none" xmlns="http://www.w3.org/2000/svg">
<path d="M54.7223 66.6111C54.7223 68.7577 52.9801 70.4999 50.8334 70.4999H4.16672C2.02005 70.4999 0.277832 68.7577 0.277832 66.6111V14.1111C0.277832 11.9644 2.02005 10.2222 4.16672 10.2222H50.8334C52.9801 10.2222 54.7223 11.9644 54.7223 14.1111V66.6111Z" fill="#C1694F"/>
<path d="M48.8891 62.7223C48.8891 63.7976 48.0199 64.6668 46.9447 64.6668H8.05577C6.98244 64.6668 6.11133 63.7976 6.11133 62.7223V18.0001C6.11133 16.9268 6.98244 16.0557 8.05577 16.0557H46.9447C48.0199 16.0557 48.8891 16.9268 48.8891 18.0001V62.7223Z" fill="white"/>
<path d="M41.1111 6.33333H33.3333C33.3333 3.11139 30.7219 0.5 27.5 0.5C24.2781 0.5 21.6667 3.11139 21.6667 6.33333H13.8889C11.7422 6.33333 10 8.07556 10 10.2222V19.9444H45V10.2222C45 8.07556 43.2578 6.33333 41.1111 6.33333Z" fill="#CCD6DD"/>
<path d="M27.5002 10.2221C29.648 10.2221 31.3891 8.481 31.3891 6.33322C31.3891 4.18545 29.648 2.44434 27.5002 2.44434C25.3524 2.44434 23.6113 4.18545 23.6113 6.33322C23.6113 8.481 25.3524 10.2221 27.5002 10.2221Z" fill="#292F33"/>
<path d="M31.3889 27.7223C31.3889 28.7956 30.5197 29.6667 29.4444 29.6667H11.9444C10.8711 29.6667 10 28.7956 10 27.7223C10 26.6489 10.8711 25.7778 11.9444 25.7778H29.4444C30.5197 25.7778 31.3889 26.6489 31.3889 27.7223ZM45 35.5001C45 36.5734 44.1308 37.4445 43.0556 37.4445H11.9444C10.8711 37.4445 10 36.5734 10 35.5001C10 34.4267 10.8711 33.5556 11.9444 33.5556H43.0556C44.1308 33.5556 45 34.4267 45 35.5001ZM45 43.2778C45 44.3531 44.1308 45.2223 43.0556 45.2223H11.9444C10.8711 45.2223 10 44.3531 10 43.2778C10 42.2026 10.8711 41.3334 11.9444 41.3334H43.0556C44.1308 41.3334 45 42.2026 45 43.2778ZM45 51.0556C45 52.1309 44.1308 53.0001 43.0556 53.0001H11.9444C10.8711 53.0001 10 52.1309 10 51.0556C10 49.9803 10.8711 49.1112 11.9444 49.1112H43.0556C44.1308 49.1112 45 49.9803 45 51.0556ZM45 58.8334C45 59.9087 44.1308 60.7778 43.0556 60.7778H25.5556C24.4822 60.7778 23.6111 59.9087 23.6111 58.8334C23.6111 57.7581 24.4822 56.8889 25.5556 56.8889H43.0556C44.1308 56.8889 45 57.7581 45 58.8334Z" fill="#99AAB5"/>
</svg>
